:SAMPLES-PER-SECOND 30
:FULLY-SPECIFIED
:DEGREES
49
root  67.554 39.3119 -6.12935 -71.7557 -86.0974 78.5626
RightUpLeg  4.77817 -15.6849 -7.9411
RightLeg  16.7233 -2.95906 -0.210164
RightFoot  -13.9738 0.0690943 7.44254
RightToes  3.49245e-010 0 -3.6325e-017
Spine  6.7711 1.8932 6.74731
Spine1  6.21553 4.58377 -9.29533
HEad  -17.9896 -1.81406 -2.39585
LeftShoulder1  8.38869 -12.2237 -46.5277
LeftArm  1.72174 36.0532 -19.531
LeftForeArm  176.126 -63.1247 -161.173
LeftHand  -0.244104 0.0205437 5.32207
RightShoulder  6.19122 10.0612 39.5291
RightArm  8.91123 -8.14643 33.0532
RightForeArm  146.421 64.4462 156.96
RightHand  0.287474 -9.53957 -9.00453
LeftUpLeg  -27.262 12.8283 -6.34701
LeftLeg  37.0744 6.3703 5.51966
LeftFoot  -15.8208 -0.174889 -6.88459
LeftToes  1.68253e-010 -2.29257e-011 3.59052e-011
50
root  66.1083 39.7898 -6.02376 -64.3027 -85.1364 71.6772
RightUpLeg  6.81639 -16.7517 -10.0813
RightLeg  15.2322 -1.57322 0.608461
RightFoot  -7.56253 -0.399959 10.5505
RightToes  3.49245e-010 0 -3.6325e-017
Spine  5.42024 2.46841 6.20757
Spine1  6.47218 5.2587 -10.0492
HEad  -16.4151 -3.7912 -2.38961
LeftShoulder1  8.39849 -12.3169 -46.302
LeftArm  0.539149 40.4475 -21.4275
LeftForeArm  177.456 -61.7133 -162.343
LeftHand  -0.244104 0.0205437 5.32207
RightShoulder  6.157 10.0483 39.3283
RightArm  11.2077 -9.66605 32.7748
RightForeArm  145.315 65.6068 155.64
RightHand  0.250699 -9.421 -8.35885
LeftUpLeg  -25.7453 13.1052 -9.05686
LeftLeg  28.9025 5.08528 3.36949
LeftFoot  -15.6677 -0.181351 -7.26485
LeftToes  1.68253e-010 -2.29257e-011 3.59052e-011
51
root  64.6771 39.9891 -5.90643 -57.0551 -84.6049 64.2508
RightUpLeg  7.68055 -18.07 -11.3669
RightLeg  17.3562 0.12801 0.268767
RightFoot  -2.79153 -0.978188 12.851
RightToes  3.49245e-010 0 -3.6325e-017
Spine  5.0321 2.643 5.52975
Spine1  6.58038 5.36248 -10.0009
HEad  -15.2819 -4.85787 -2.35903
LeftShoulder1  8.43351 -12.4584 -46.077
LeftArm  -2.17654 43.6094 -24.5895
LeftForeArm  178.437 -60.9041 -162.989
LeftHand  -0.244104 0.0205437 5.32207
RightShoulder  6.00647 9.80761 39.0351
RightArm  13.4192 -10.5266 32.8325
RightForeArm  145.116 68.4898 152.149
RightHand  0.196177 -10.2505 -5.77439
LeftUpLeg  -23.3314 11.5708 -10.3407
LeftLeg  22.5965 4.3602 2.31732
LeftFoot  -15.9611 -0.217165 -7.76557
LeftToes  1.68253e-010 -2.29257e-011 3.59052e-011
52
root  63.2567 39.8616 -5.76845 -54.0821 -84.7296 60.6892
RightUpLeg  6.49536 -15.6201 -11.2953
RightLeg  23.5099 -0.519193 -0.53957
RightFoot  0.71206 -1.38947 13.1886
RightToes  3.49245e-010 0 -3.6325e-017
Spine  5.27895 2.73038 5.07754
Spine1  6.38885 5.34765 -9.79514
HEad  -13.998 -4.95013 -1.97432
LeftShoulder1  8.40699 -12.512 -45.7687
LeftArm  -5.01146 45.0481 -28.0902
LeftForeArm  179.265 -60.6415 -163.237
LeftHand  -0.244104 0.0205437 5.32207
RightShoulder  5.95285 9.62837 39.2322
RightArm  15.335 -11.2069 32.275
RightForeArm  142.777 71.9717 146.263
RightHand  0.102757 -10.713 -3.35476
LeftUpLeg  -20.7746 10.0907 -10.7388
LeftLeg  19.0674 4.51399 2.03648
LeftFoot  -15.3317 -0.153084 -6.90979
LeftToes  1.68253e-010 -2.29257e-011 3.59052e-011
53
root  61.8457 39.4103 -5.60666 -58.941 -85.1091 64.84
RightUpLeg  3.14394 -10.6563 -10.9376
RightLeg  33.1718 -0.966535 -0.883219
RightFoot  5.82241 -1.6965 11.5364
RightToes  3.49245e-010 0 -3.6325e-017
Spine  5.98268 2.82189 4.20539
Spine1  5.84875 5.26288 -9.28793
HEad  -12.9538 -4.32898 -1.51143
LeftShoulder1  8.3051 -12.426 -45.4467
LeftArm  -6.94202 44.7314 -30.7844
LeftForeArm  -179.981 -60.5939 -163.337
LeftHand  -0.244104 0.0205437 5.32207
RightShoulder  6.0254 9.69663 39.5329
RightArm  16.8111 -12.1251 31.4904
RightForeArm  135.96 75.1558 137.512
RightHand  0.018604 -10.9418 -1.58828
LeftUpLeg  -19.0628 9.51704 -11.1983
LeftLeg  19.4266 5.57049 2.43215
LeftFoot  -14.1945 -0.0076319 -3.71532
LeftToes  1.68253e-010 -2.29257e-011 3.59052e-011
54
root  60.5147 38.6765 -5.48806 -71.6587 -84.5513 76.5733
RightUpLeg  -1.61206 -5.46759 -11.7378
RightLeg  44.7953 0.243081 -0.00527715
RightFoot  12.7042 -1.8737 9.19396
RightToes  3.49245e-010 0 -3.6325e-017
Spine  7.77918 2.77898 1.50663
Spine1  5.04133 4.7951 -8.2314
HEad  -13.5768 -3.33845 -1.01221
LeftShoulder1  8.20751 -12.2072 -45.5423
LeftArm  -7.57701 42.2033 -31.3354
LeftForeArm  179.186 -61.025 -162.976
LeftHand  -0.244104 0.0205437 5.32207
RightShoulder  6.12451 9.88558 39.624
RightArm  16.9883 -13.1502 31.8654
RightForeArm  121.586 78.2252 121.244
RightHand  -0.0545312 -10.997 -0.0724781
LeftUpLeg  -18.5855 9.01299 -12.5327
LeftLeg  24.1479 7.26437 3.92569
LeftFoot  -14.9034 0.100437 0.128791
LeftToes  1.68253e-010 -2.29257e-011 3.59052e-011
55
root  59.2844 37.8355 -5.46039 -80.8659 -82.8419 84.3021
RightUpLeg  -6.68246 -1.17902 -13.5305
RightLeg  56.4648 0.632867 0.50398
RightFoot  16.9624 -1.63199 6.9189
RightToes  3.49245e-010 0 -3.6325e-017
Spine  10.9008 2.54941 -2.62575
Spine1  4.27649 3.83788 -6.92198
HEad  -16.2929 -2.33266 -0.276337
LeftShoulder1  8.27194 -11.9661 -46.6451
LeftArm  -6.68885 36.655 -28.7616
LeftForeArm  176.018 -62.8318 -161.357
LeftHand  -0.244104 0.0205437 5.32207
RightShoulder  6.2922 10.0145 40.3842
RightArm  14.3976 -14.3986 33.4148
RightForeArm  91.4345 80.0286 87.1963
RightHand  -0.049665 -9.93883 -0.183714
LeftUpLeg  -18.2759 8.30478 -14.2918
LeftLeg  31.0319 8.67813 5.94383
LeftFoot  -18.3718 0.227954 1.98945
LeftToes  1.68253e-010 -2.29257e-011 3.59052e-011
56
root  58.0049 37.1963 -5.45945 -81.2912 -81.4073 83.18
RightUpLeg  -11.5596 0.9798 -14.8874
RightLeg  66.1518 -0.618307 -2.28679
RightFoot  15.934 -0.846062 3.88705
RightToes  3.49245e-010 0 -3.6325e-017
Spine  13.9523 2.08788 -6.03258
Spine1  3.99349 2.54623 -5.45605
HEad  -19.6899 -1.49689 0.488545
LeftShoulder1  8.55828 -11.8958 -48.507
LeftArm  -4.71004 28.6541 -24.4559
LeftForeArm  172.855 -65.7745 -158.54
LeftHand  -0.244104 0.0205437 5.32207
RightShoulder  6.56741 10.0197 42.2787
RightArm  8.72751 -17.202 34.4528
RightForeArm  62.9308 78.2398 55.0291
RightHand  0.041869 -8.17536 -3.53767
LeftUpLeg  -16.7108 8.68558 -15.2707
LeftLeg  36.1083 8.2864 6.80612
LeftFoot  -22.7068 0.293784 1.61794
LeftToes  1.68253e-010 -2.29257e-011 3.59052e-011
57
root  56.5464 36.9312 -5.40094 -76.3001 -81.1077 77.4753
RightUpLeg  -16.5392 0.958089 -14.9426
RightLeg  72.143 -1.75051 -6.95156
RightFoot  11.2489 -0.133785 1.06666
RightToes  3.49245e-010 0 -3.6325e-017
Spine  15.1835 1.27278 -8.02896
Spine1  4.35213 0.94335 -3.26501
HEad  -22.2575 -0.503399 0.624721
LeftShoulder1  8.82193 -11.9896 -49.705
LeftArm  -2.63999 21.0103 -21.6783
LeftForeArm  172.882 -67.7042 -156.602
LeftHand  -0.244104 0.0205437 5.32207
RightShoulder  6.67599 9.81631 43.7198
RightArm  2.90783 -22.9591 33.8639
RightForeArm  56.7668 77.4547 51.3687
RightHand  0.111077 -7.15596 -9.2984
LeftUpLeg  -13.873 9.68662 -14.7916
LeftLeg  37.4099 6.89038 6.01998
LeftFoot  -25.7389 0.242886 0.685489
LeftToes  1.68253e-010 -2.29257e-011 3.59052e-011
58
root  54.9014 37.0462 -5.26695 -69.3376 -81.9999 70.907
RightUpLeg  -21.6962 0.00672806 -13.5109
RightLeg  73.7193 -2.20132 -9.55834
RightFoot  6.25923 -0.00623024 0.362726
RightToes  3.49245e-010 0 -3.6325e-017
Spine  14.6296 0.0770456 -9.05971
Spine1  4.65065 -1.06186 -0.0567866
HEad  -23.7545 1.37693 -0.260102
LeftShoulder1  8.76135 -12.0419 -49.1959
LeftArm  -1.18359 16.6626 -22.2123
LeftForeArm  175.827 -66.8808 -157.759
LeftHand  -0.244104 0.0205437 5.32207
RightShoulder  6.2894 9.28819 42.8228
RightArm  1.64508 -30.8663 31.7768
RightForeArm  71.7118 79.3047 75.5286
RightHand  0.0457656 -5.87422 -14.8674
LeftUpLeg  -10.2795 10.3312 -13.0633
LeftLeg  35.1985 5.93569 4.85884
LeftFoot  -26.823 0.223013 0.452278
LeftToes  1.68253e-010 -2.29257e-011 3.59052e-011
59
root  53.0937 37.5247 -5.08914 -63.361 -84.146 65.8192
RightUpLeg  -26.1437 -0.818916 -10.4176
RightLeg  71.0218 -2.95402 -10.3848
RightFoot  2.76348 -0.158251 1.44375
RightToes  3.49245e-010 0 -3.6325e-017
Spine  13.6846 -1.43448 -8.78952
Spine1  4.08899 -3.24068 3.27788
HEad  -24.3847 4.51293 -1.8803
LeftShoulder1  8.47299 -11.9867 -47.7365
LeftArm  -0.177189 15.9349 -24.7287
LeftForeArm  177.757 -64.0335 -160.589
LeftHand  -0.244104 0.0205437 5.32207
RightShoulder  5.55173 8.5637 39.8644
RightArm  5.74843 -38.2339 28.2468
RightForeArm  103.099 78.4274 114.068
RightHand  -0.154236 -4.37033 -16.8877
LeftUpLeg  -5.76748 10.7371 -10.2245
LeftLeg  30.1686 5.77357 3.98018
LeftFoot  -26.0076 0.242367 0.686665
LeftToes  1.68253e-010 -2.29257e-011 3.59052e-011
